<svg width="250" height="200" viewBox="0 0 250 200" fill="none" xmlns="http://www.w3.org/2000/svg">
<path d="M136 64C139.866 64 143 67.134 143 71C143 74.866 139.866 78 136 78H200C203.866 78 207 81.134 207 85C207 88.866 203.866 92 200 92H222C225.866 92 229 95.134 229 99C229 102.866 225.866 106 222 106H203C199.134 106 196 109.134 196 113C196 116.866 199.134 120 203 120H209C212.866 120 216 123.134 216 127C216 130.866 212.866 134 209 134H157C156.485 134 155.983 133.944 155.5 133.839C155.017 133.944 154.515 134 154 134H63C59.134 134 56 130.866 56 127C56 123.134 59.134 120 63 120H24C20.134 120 17 116.866 17 113C17 109.134 20.134 106 24 106H64C67.866 106 71 102.866 71 99C71 95.134 67.866 92 64 92H39C35.134 92 32 88.866 32 85C32 81.134 35.134 78 39 78H79C75.134 78 72 74.866 72 71C72 67.134 75.134 64 79 64H136ZM226 120C229.866 120 233 123.134 233 127C233 130.866 229.866 134 226 134C222.134 134 219 130.866 219 127C219 123.134 222.134 120 226 120Z" fill="#FCEEF7"/>
<path d="M167.001 148H189.429M64.001 148H85.4551H64.001ZM51.1289 148H58.001H51.1289ZM194.129 148H197.001H194.129Z" stroke="#2F2956" stroke-width="2.5" stroke-linecap="round" stroke-linejoin="round"/>
<path d="M98 43.3027L109.1 55.7559M150.1 43.3027L139 55.7559L150.1 43.3027ZM124 39V55.7559V39Z" stroke="#AF6C9B" stroke-width="2.5" stroke-linecap="round" stroke-linejoin="round"/>
<path fill-rule="evenodd" clip-rule="evenodd" d="M92.7985 71H155.405L149.799 79.4098L157.274 85.0164H90.9297L99.3395 79.4098L92.7985 71Z" fill="#E7E6FE"/>
<rect x="89" y="83" width="71" height="75" rx="2" fill="white"/>
<path fill-rule="evenodd" clip-rule="evenodd" d="M93.5859 124.006V89.6453C93.5859 88.2297 94.7462 87.082 96.1774 87.082L157.154 151.164C157.154 153.052 155.643 154.582 153.779 154.582H96.9609C95.0969 154.582 93.5859 153.052 93.5859 151.164V138.395V134.93V124.006ZM93.5859 131.425V127.577V131.425Z" fill="#E7E6FE"/>
<path d="M90 124.463V86.8853C90 85.3371 91.2705 84.082 92.8377 84.082H157.761C158.782 84.082 159.609 84.9187 159.609 85.9509V154.164C159.609 156.228 157.954 157.902 155.913 157.902H93.6956C91.6546 157.902 90 156.228 90 154.164V140.199V136.41M90 132.576V128.368" stroke="#2F2956" stroke-width="2.5" stroke-linecap="round"/>
<path d="M91.8636 84.082V72.8689C91.8636 71.8368 92.6145 71.0001 93.5408 71.0001H155.596C156.523 71.0001 157.273 71.8368 157.273 72.8689V84.082" stroke="#2F2956" stroke-width="2.5"/>
<path d="M109.149 103.705C110.956 103.705 112.42 102.241 112.42 100.435C112.42 98.6283 110.956 97.1641 109.149 97.1641C107.343 97.1641 105.879 98.6283 105.879 100.435C105.879 102.241 107.343 103.705 109.149 103.705Z" fill="#E7E6FE" stroke="#2F2956" stroke-width="2.5" stroke-linecap="round"/>
<path d="M139.985 103.705C141.792 103.705 143.256 102.241 143.256 100.435C143.256 98.6283 141.792 97.1641 139.985 97.1641C138.179 97.1641 136.715 98.6283 136.715 100.435C136.715 102.241 138.179 103.705 139.985 103.705Z" fill="#E7E6FE" stroke="#2F2956" stroke-width="2.5" stroke-linecap="round"/>
<path d="M139.519 103.705C139.519 111.962 132.825 118.656 124.568 118.656C116.311 118.656 109.617 111.962 109.617 103.705" stroke="#2F2956" stroke-width="2.5" stroke-linecap="round"/>
<path d="M92.8547 71.9314L99.4331 78.4251C99.8262 78.813 99.8303 79.4462 99.4423 79.8392C99.3752 79.9073 99.2986 79.9653 99.215 80.0116L91.8633 84.0819" stroke="#2F2956" stroke-width="2.5" stroke-linecap="round"/>
<path d="M156.44 71.9993L150.145 78.4197C149.758 78.8141 149.764 79.4472 150.159 79.8339C150.225 79.8984 150.299 79.9535 150.38 79.9977L157.867 84.082" stroke="#2F2956" stroke-width="2.5" stroke-linecap="round"/>
</svg>
