<svg width="315" height="108" viewBox="0 0 315 108" fill="none" xmlns="http://www.w3.org/2000/svg">
<path d="M31.2849 97.1154H12L12.1176 96.8685C12.8466 95.1869 13.1994 92.8939 13.1994 91.083V26.2434C13.1994 24.4325 12.8349 22.1512 12.1176 20.4579L12 20.2109H31.2849L31.1673 20.4579C30.4383 22.1394 30.0855 24.4325 30.0855 26.2434V56.8523H49.7349V26.2434C49.7349 24.4325 49.3704 22.1512 48.6531 20.4579L48.5355 20.2109H67.8204L67.7028 20.4579C66.9855 22.1394 66.621 24.4325 66.621 26.2434V91.083C66.621 92.8939 66.9855 95.1869 67.7028 96.8685L67.8204 97.1154H48.5355L48.6531 96.8685C49.3822 95.1869 49.7349 92.8939 49.7349 91.083V59.9919H30.0855V91.083C30.0855 92.8939 30.45 95.1869 31.1673 96.8685L31.2849 97.1154Z" fill="#665BAF"/>
<path d="M100.603 42.8828C112.656 42.6476 124.345 50.9613 126.638 69.1526H92.6542C93.6185 79.9945 99.157 88.4375 110.61 88.4375C115.549 88.4375 120.853 86.7559 125.439 83.2517C120.617 97.1157 111.822 98.7973 102.779 98.7973C87.3509 98.7973 74.4629 90.1191 74.4629 70.9635C74.4629 53.0074 87.7154 43.1297 100.615 42.8828M110.234 67.4593C107.576 52.5135 104.813 44.7995 100.109 44.7995C96.2525 44.7995 92.031 56.3705 92.5131 67.4593H110.234Z" fill="#665BAF"/>
<path d="M233.601 63.732C233.365 49.7505 226.134 44.3295 221.065 45.0468C217.455 45.6465 214.433 48.6569 214.68 52.6432C215.397 64.8139 243.361 65.8957 243.608 84.9337C243.725 95.5404 231.801 100.115 220.948 99.9971C211.552 99.8795 202.027 97.3395 199.734 91.2013L207.201 78.1839C208.765 88.7906 214.433 97.7041 221.065 98.1862C226.251 98.5507 231.672 96.3753 231.672 92.5183C231.672 91.3189 231.072 89.9901 229.861 88.4261C227.815 85.8979 218.655 79.3834 212.869 75.7733C204.92 70.8345 200.934 63.9672 200.934 57.9348C200.934 49.9856 207.566 43.3535 221.301 43.3535C230.825 43.3535 240.468 46.7284 243.831 55.4066L233.589 63.7203L233.601 63.732Z" fill="#665BAF"/>
<path d="M251.274 26.8545C251.274 23.7149 249.828 22.0333 248.863 19.023L268.148 15.166V61.8026C269.959 52.4071 276.944 43.3643 283.212 43.3643C296.346 43.3643 299.239 52.4071 299.239 64.0956V90.6124C299.239 92.6584 300.321 95.0691 301.897 96.3978L302.861 97.1269H290.69C285.752 97.1269 282.377 93.752 282.377 88.8132V62.7786C282.377 56.511 282.012 51.09 277.32 51.09C271.899 51.09 268.16 63.2607 268.16 72.0565V90.9769C268.16 92.7878 268.642 95.316 269.371 96.9975V97.1151H250.086V96.9975C250.804 95.3042 251.286 92.776 251.286 90.9769V26.8663L251.274 26.8545Z" fill="#665BAF"/>
<path d="M174.205 44.8467L174.334 45.1642C174.934 46.493 175.299 48.2921 175.299 49.7385V50.4205C176.11 47.3396 175.205 45.7051 174.205 44.8467Z" fill="#665BAF"/>
<path d="M193.138 96.5044C192.538 95.058 192.173 93.1295 192.173 91.5655V44.5645H182.813C183.06 46.6223 182.848 48.8095 181.708 50.832C180.238 53.4426 177.71 56.0178 175.311 58.0992V92.0359C175.311 93.5998 174.829 95.5284 174.229 96.8571L174.111 97.1041H193.396L193.161 96.5044H193.138Z" fill="#665BAF"/>
<path d="M165.61 43.3649C158.496 44.0822 152.358 52.4076 150.547 61.8031V44.6937L131.262 48.5507C132.473 50.9613 133.672 53.2543 133.672 56.3822V81.3585C135.66 79.6064 137.376 78.2894 138.588 77.4192C143.797 73.6328 146.784 72.6333 149.23 69.0115C150.429 67.2358 151.017 65.5425 151.323 64.4842C152.687 57.5699 155.744 51.0906 159.695 51.0906C163.646 51.0906 164.634 54.1009 164.752 59.4043V62.7792C171.137 59.1691 175.84 53.0191 175.84 48.5624C175.84 45.07 172.948 42.6593 165.598 43.3766" fill="#665BAF"/>
<path d="M151.076 90.4247C151.076 95.4341 147.007 99.5027 141.998 99.5027C136.989 99.5027 132.92 95.4341 132.92 90.4247C132.92 85.4153 136.989 81.3467 141.998 81.3467C147.007 81.3467 151.076 85.4153 151.076 90.4247Z" fill="#665BAF"/>
<path d="M191.573 20.7645C192.737 20.5058 193.842 19.9296 194.748 19.0242C197.264 16.5077 197.264 12.4155 194.748 9.88733C192.231 7.37089 188.139 7.37089 185.611 9.88733C184.705 10.7928 184.129 11.8981 183.87 13.074C183.612 11.9099 183.036 10.8045 182.13 9.88733C179.614 7.37089 175.522 7.37089 172.993 9.88733C170.465 12.4038 170.477 16.496 172.993 19.0242C173.899 19.9296 175.004 20.5058 176.168 20.7645C175.004 21.0232 173.899 21.5994 172.993 22.5048C170.477 25.0213 170.477 29.1135 172.993 31.6417C175.51 34.1699 179.602 34.1581 182.13 31.6417C183.036 30.7362 183.612 29.6309 183.87 28.4667C184.129 29.6309 184.705 30.7362 185.611 31.6417C188.127 34.1581 192.219 34.1581 194.748 31.6417C197.264 29.1252 197.264 25.033 194.748 22.5048C193.842 21.5994 192.737 21.0232 191.573 20.7645Z" fill="#665BAF"/>
</svg>
