<?xml version="1.0" standalone="no"?>
<!DOCTYPE svg PUBLIC "-//W3C//DTD SVG 1.1//EN" "http://www.w3.org/Graphics/SVG/1.1/DTD/svg11.dtd" >
<svg xmlns="http://www.w3.org/2000/svg">
<metadata>Generated by IcoMoon</metadata>
<defs>
<font id="icomoon" horiz-adv-x="1024">
<font-face units-per-em="1024" ascent="960" descent="-64" />
<missing-glyph horiz-adv-x="1024" />
<glyph unicode="&#x20;" horiz-adv-x="512" d="" />
<glyph unicode="&#xe900;" glyph-name="plus" horiz-adv-x="983" d="M491.52 826.64c28.279 0 51.2-22.923 51.2-51.2v-276.482h276.48c28.279 0 51.2-22.921 51.2-51.2 0-28.275-22.921-51.2-51.2-51.2h-276.48v-276.48c0-28.275-22.921-51.2-51.2-51.2s-51.2 22.925-51.2 51.2v276.48h-276.48c-28.277 0-51.2 22.925-51.2 51.2 0 28.279 22.923 51.2 51.2 51.2h276.48v276.482c0 28.277 22.921 51.2 51.2 51.2z" />
<glyph unicode="&#xe901;" glyph-name="information-circle" horiz-adv-x="983" d="M491.52 888.080c243.184 0 440.32-197.138 440.32-440.322 0-243.18-197.136-440.32-440.32-440.32-243.182 0-440.32 197.14-440.32 440.32 0 243.184 197.138 440.322 440.32 440.322zM450.56 488.718c-22.622 0-40.96-18.338-40.96-40.96 0-22.618 18.338-40.96 40.96-40.96v-163.84c0-22.618 18.338-40.96 40.96-40.96s40.96 18.342 40.96 40.96v165.442c0.004 8.184 0.004 17.94-1.118 26.321-1.364 10.117-5.005 24.121-16.884 36-11.874 11.878-25.879 15.52-36 16.88-8.38 1.126-18.133 1.126-26.317 1.118-0.541 0-1.077 0-1.602 0zM491.319 652.56c-22.512-0.007-40.759-18.343-40.759-40.96s18.248-40.953 40.759-40.96h0.36c22.52 0 40.8 18.339 40.8 40.96s-18.28 40.96-40.8 40.96h-0.36z" />
<glyph unicode="&#xe902;" glyph-name="edit" horiz-adv-x="983" d="M522.158 48.398c0 22.622 18.342 40.96 40.96 40.96h327.68c22.622 0 40.96-18.338 40.96-40.96 0-22.618-18.338-40.96-40.96-40.96h-327.68c-22.618 0-40.96 18.342-40.96 40.96zM780.399 868.149c-49.349 27.397-109.191 26.493-157.712-2.364-15.405-9.162-29.626-22.812-47.53-41.81-7.619-8.079-11.424-12.119-11.35-17.102s4.039-8.949 11.973-16.882l261.788-261.787c8.098-8.102 12.149-12.149 17.224-12.161s9.089 3.969 17.121 11.932c17.236 17.089 29.729 30.942 38.228 45.858 28 49.132 28.865 109.539 2.302 159.474-11.076 20.814-29.725 39.853-57.59 68.301l-7.541 7.704c-27.771 28.386-46.44 47.473-66.912 58.838zM777.572 436.937c8.487 8.176 12.73 12.263 12.78 17.42s-4.116 9.327-12.452 17.658l-256.332 256.333c-8.495 8.497-12.743 12.745-17.977 12.64s-9.31-4.52-17.461-13.35l-316.452-342.864c-45.878-49.689-73.996-80.146-90.456-118.030-16.428-37.814-19.663-79.417-24.953-147.444l-0.009-0.115c-0.010-0.123-3.502-44.798-2.963-54.469 0.61-10.953 3.219-24.273 13.386-35.807 10.258-11.645 23.225-15.831 34.142-17.65 9.496-1.585 52.266-2.699 52.352-2.703 77.707-2.044 125.744-3.31 169.918 13.943 44.111 17.228 78.971 50.819 135.532 105.316l320.946 309.121z" />
<glyph unicode="&#xe903;" glyph-name="agreement" d="M530.088 696.943c-0.336-0.199-0.676-0.394-1.016-0.582-9.851-5.704-19.149-12.473-27.705-20.244l-119.826-108.817c-31.315-28.439-32.434-76.907-2.567-106.742 25.861-25.833 66.925-29.303 96.846-7.95l79.249 56.545c19.112 13.636 42.906 18.702 65.769 14.135l15.876-3.17c45.347-9.060 92.348 1.63 129.192 29.233l28.111 21.060c15.876 11.894 38.224 8.446 49.918-7.7s8.307-38.878-7.569-50.773l-28.111-21.058c-32.109-24.056-69.456-39.133-108.319-44.417-13.361-1.815-20.046-2.724-22.364-6.988s0.27-10.052 5.448-21.635c6.726-15.045 14.148-30.667 22.372-46.109 22.88-42.963 52.199-85.328 92.258-118.104 3.465-2.839 5.202-4.26 7.487-4.723 2.29-0.463 4.473 0.184 8.831 1.483 11.059 3.285 25.412 7.926 39.256 13.345 30.204 11.813 64.258 28.815 92.439 51.868 3.191 2.613 4.788 3.92 5.722 5.902s0.934 4.186 0.934 8.585v453.374c0 15.792 0 23.688-4.993 26.433s-11.489-1.58-24.478-10.231l-77.615-51.687c-45.629-30.388-100.438-43.684-154.808-37.65l-62.030 6.885c-34.451 3.824-68.829-3.485-98.308-20.269zM409.78 728.643c-46.544 12.105-108.78 22.459-182.798 24.371-21.985 0.568-44.145 6.282-64.061 17.857l-62.754 36.472c-12.669 7.363-19.004 11.045-23.746 8.246s-4.742-10.22-4.742-25.061v-472.666c0-0.262 0.085-0.516 0.241-0.725 18.122-21.684 65.026-76.509 97.564-105.284 66.078-58.442 153.060-112.128 247.311-112.128 80.332 0 157.005 18.956 220.149 45.638 34.099 14.406 63.398 30.695 86.794 46.809 8.487 5.845 12.73 8.77 13.144 13.332 0.41 4.567-3.527 8.511-11.407 16.409-35.807 35.893-62.386 76.767-82.866 115.229-14.746 27.685-26.571 54.583-36.397 77.89-0.934 2.22-2.511 5.984-4.28 10.215-4.264 10.199-6.394 15.299-10.76 16.568s-8.823-1.909-17.736-8.266l-56.607-40.395c-57.991-41.374-137.355-34.89-187.888 15.589-59.36 59.298-57.012 156.374 5.044 212.728l82.938 75.318c11.075 10.057 16.61 15.086 15.258 20.732-1.356 5.646-8.37 7.471-22.401 11.12z" />
<glyph unicode="&#xe904;" glyph-name="alert" d="M442.116 874.032c45.41 15.068 94.345 15.068 139.75 0 45.231-15.013 80.742-50.641 116.42-100.666 35.554-49.862 74.854-119.384 125.5-209l1.997-3.5c50.654-89.625 89.933-159.163 114.419-215.543 24.602-56.653 36.86-105.591 27.081-152.58-9.843-47.305-34.112-90.321-69.457-122.833-35.264-32.439-83.29-46.135-143.748-52.71-60.122-6.537-138.778-6.541-240-6.541h-4.169c-101.222 0-179.878 0.004-240 6.541-60.46 6.575-108.485 20.271-143.75 52.71-35.343 32.512-59.613 75.529-69.458 122.833-9.777 46.989 2.48 95.927 27.084 152.58 24.485 56.38 63.765 125.918 114.417 215.543l2 3.5c50.645 89.616 89.943 159.138 125.5 209 35.675 50.026 71.189 85.654 116.415 100.666zM511.787 277.325c-23.454-0.009-42.462-19.11-42.462-42.667 0-23.561 19.008-42.658 42.462-42.667h0.414c23.454 0.009 42.458 19.106 42.458 42.667 0 23.556-19.004 42.658-42.458 42.667h-0.414zM511.991 618.657c-23.561 0-42.667-19.103-42.667-42.667v-170.666c0-23.565 19.106-42.667 42.667-42.667 23.565 0 42.667 19.102 42.667 42.667v170.666c0 23.564-19.102 42.667-42.667 42.667z" />
<glyph unicode="&#xe905;" glyph-name="arrow-left-01-round" d="M674.351 729.299c-13.973 18.974-40.683 23.027-59.657 9.053-14.737-10.854-28.745-21.711-40.947-31.232-24.354-19.008-56.977-45.177-89.719-73.608-32.533-28.247-66.167-59.566-92.002-88.805-12.874-14.569-24.714-29.63-33.566-44.316-8.147-13.513-17.126-32.081-17.126-52.395s8.98-38.886 17.126-52.399c8.852-14.686 20.692-29.743 33.566-44.314 25.835-29.239 59.468-60.557 92.002-88.806 32.742-28.429 65.365-54.596 89.719-73.609 12.203-9.519 26.21-20.378 40.947-31.232 18.974-13.973 45.683-9.92 59.657 9.054 5.619 7.629 8.324 16.503 8.316 25.301v512.006c0.009 8.798-2.697 17.675-8.316 25.302z" />
<glyph unicode="&#xe906;" glyph-name="arrow-left-02-round" d="M128 448c0 23.565 19.103 42.667 42.667 42.667h682.667c23.565 0 42.667-19.102 42.667-42.667s-19.102-42.667-42.667-42.667h-682.667c-23.564 0-42.667 19.102-42.667 42.667zM214.522 448c3.981-6.605 12.326-18.47 21.451-28.796 18.165-20.561 43.199-44.045 69.332-66.731 25.921-22.507 51.968-43.413 71.61-58.739 9.799-7.646 26.708-20.42 32.389-24.713 18.97-13.973 23.024-40.683 9.050-59.652-13.974-18.974-40.683-23.027-59.657-9.054l-0.158 0.119c-6.16 4.651-24.021 18.142-34.123 26.027-20.357 15.885-47.644 37.773-75.056 61.572-27.2 23.616-55.5 49.954-77.334 74.667-10.874 12.305-21.048 25.216-28.734 37.965-6.979 11.58-15.292 28.425-15.293 47.334 0.001 18.906 8.313 35.755 15.293 47.334 7.686 12.749 17.859 25.66 28.733 37.965 21.835 24.713 50.135 51.049 77.335 74.665 27.412 23.8 54.699 45.688 75.056 61.575 10.102 7.883 27.951 21.365 34.112 26.018l0.17 0.128c18.974 13.974 45.683 9.92 59.657-9.053s9.92-45.68-9.050-59.654c-5.68-4.29-22.59-17.064-32.389-24.711-19.642-15.329-45.689-36.233-71.61-58.738-26.133-22.688-51.167-46.172-69.332-66.733-9.125-10.325-17.47-22.191-21.451-28.796z" />
<glyph unicode="&#xe907;" glyph-name="arrow-right-01-round" d="M349.647 729.299c13.974 18.974 40.683 23.027 59.657 9.053 14.737-10.854 28.746-21.711 40.949-31.232 24.354-19.008 56.977-45.177 89.719-73.608 32.533-28.247 66.167-59.566 92.002-88.805 12.873-14.569 24.713-29.63 33.566-44.316 8.145-13.513 17.126-32.081 17.126-52.395s-8.981-38.886-17.126-52.399c-8.853-14.686-20.693-29.743-33.566-44.314-25.835-29.239-59.469-60.557-92.002-88.806-32.742-28.429-65.365-54.596-89.719-73.609-12.203-9.519-26.211-20.378-40.948-31.232-18.974-13.973-45.683-9.92-59.657 9.054-5.617 7.629-8.321 16.503-8.314 25.301v512.005c-0.007 8.798 2.697 17.675 8.314 25.302z" />
<glyph unicode="&#xe908;" glyph-name="arrow-right-02-round" d="M896 448c0-23.565-19.102-42.667-42.667-42.667h-682.668c-23.564 0-42.667 19.102-42.667 42.667s19.103 42.667 42.667 42.667h682.668c23.565 0 42.667-19.102 42.667-42.667zM809.476 448c-3.981 6.605-12.326 18.47-21.449 28.796-18.167 20.561-43.2 44.045-69.333 66.733-25.92 22.506-51.968 43.409-71.612 58.738-9.796 7.647-26.705 20.421-32.388 24.711-18.97 13.975-23.023 40.682-9.050 59.654 13.973 18.974 40.683 23.027 59.657 9.053l0.158-0.119c6.161-4.653 24.021-18.144 34.125-26.027 20.356-15.887 47.642-37.775 75.055-61.575 27.2-23.616 55.501-49.952 77.333-74.665 10.876-12.305 21.047-25.216 28.736-37.965 6.98-11.58 15.292-28.425 15.292-47.334 0-18.906-8.311-35.755-15.292-47.334-7.689-12.749-17.86-25.66-28.736-37.965-21.833-24.713-50.133-51.051-77.333-74.667-27.413-23.799-54.699-45.687-75.055-61.572-10.103-7.885-27.951-21.367-34.112-26.018l-0.171-0.128c-18.974-13.973-45.683-9.92-59.657 9.054-13.973 18.97-9.92 45.679 9.050 59.652 5.683 4.292 22.592 17.067 32.388 24.713 19.644 15.326 45.692 36.233 71.612 58.739 26.133 22.686 51.166 46.17 69.333 66.731 9.122 10.325 17.468 22.191 21.449 28.796z" />
<glyph unicode="&#xe909;" glyph-name="arrow-up-01-round" d="M793.301 285.649c18.97 13.973 23.023 40.683 9.050 59.657-10.854 14.737-21.709 28.745-31.232 40.947-19.008 24.354-45.175 56.977-73.609 89.719-28.245 32.533-59.567 66.167-88.802 92.002-14.571 12.874-29.632 24.714-44.318 33.566-13.513 8.147-32.081 17.126-52.395 17.126s-38.886-8.98-52.399-17.126c-14.686-8.852-29.743-20.692-44.314-33.566-29.239-25.835-60.558-59.468-88.805-92.002-28.431-32.742-54.599-65.365-73.608-89.719-9.522-12.203-20.378-26.21-31.232-40.947-13.974-18.974-9.921-45.683 9.053-59.657 7.627-5.619 16.504-8.324 25.302-8.316h512.003c8.798-0.009 17.677 2.697 25.306 8.316z" />
<glyph unicode="&#xe90a;" glyph-name="arrow-up-02-round" d="M512 832c23.565 0 42.667-19.103 42.667-42.667v-682.667c0-23.565-19.102-42.667-42.667-42.667s-42.667 19.102-42.667 42.667v682.667c0 23.564 19.102 42.667 42.667 42.667zM512 745.478c-6.605-3.981-18.47-12.326-28.796-21.451-20.561-18.165-44.045-43.199-66.733-69.332-22.506-25.921-43.409-51.968-58.738-71.61-7.647-9.799-20.421-26.708-24.711-32.389-13.975-18.97-40.682-23.024-59.654-9.050-18.974 13.974-23.027 40.683-9.053 59.657l0.119 0.158c4.653 6.16 18.144 24.021 26.027 34.123 15.887 20.357 37.775 47.644 61.575 75.056 23.616 27.2 49.952 55.5 74.665 77.334 12.305 10.874 25.216 21.048 37.965 28.734 11.58 6.979 28.425 15.292 47.334 15.293 18.906-0.001 35.755-8.313 47.334-15.293 12.749-7.686 25.66-17.859 37.965-28.734 24.713-21.835 51.051-50.134 74.667-77.334 23.799-27.412 45.687-54.699 61.572-75.056 7.885-10.102 21.367-27.951 26.018-34.112l0.128-0.17c13.973-18.974 9.92-45.683-9.054-59.657-18.97-13.973-45.679-9.92-59.652 9.050-4.292 5.68-17.067 22.59-24.713 32.389-15.326 19.642-36.233 45.689-58.739 71.61-22.686 26.133-46.17 51.167-66.731 69.332-10.325 9.125-22.191 17.47-28.796 21.451z" />
<glyph unicode="&#xe90b;" glyph-name="award-04" d="M512 906.667c20.676 0 39.287-5.465 58.739-14.071 18.505-8.186 39.761-20.163 65.459-34.641l77.363-43.587c26.684-15.032 48.738-27.456 65.886-39.5 18.022-12.659 32.742-26.293 43.533-44.774 10.79-18.478 15.437-38.001 17.613-59.93 2.074-20.869 2.074-46.208 2.074-76.873v-77.244c0-30.665 0-56.004-2.074-76.873-2.176-21.931-6.822-41.455-17.613-59.934s-25.51-32.115-43.533-44.774c-17.148-12.041-39.202-24.465-65.882-39.497l-77.367-43.588c-25.698-14.477-46.955-26.453-65.459-34.641-19.452-8.606-38.063-14.071-58.739-14.071s-39.287 5.466-58.739 14.071c-18.505 8.188-39.761 20.164-65.46 34.641l-77.361 43.584c-26.684 15.036-48.739 27.46-65.887 39.501-18.024 12.659-32.741 26.295-43.532 44.774-10.79 18.479-15.437 38.003-17.615 59.934-2.073 20.868-2.072 46.208-2.072 76.873v77.245c0 30.666-0.001 56.005 2.072 76.873 2.178 21.929 6.825 41.453 17.615 59.93 10.791 18.481 25.509 32.116 43.533 44.774 17.148 12.044 39.202 24.468 65.885 39.5l77.364 43.585c25.699 14.479 46.955 26.456 65.459 34.642 19.452 8.606 38.063 14.071 58.739 14.071zM652.813 599.291c22.477 7.076 34.961 31.033 27.883 53.51-7.074 22.476-31.031 34.961-53.508 27.885-56.73-17.859-111.309-68.212-148.181-107.5-11.396-12.143-21.734-23.932-30.647-34.519-7.625 7.141-15.223 12.762-22.607 17.138-9.632 5.708-23.585 13.072-41.751 13.072-23.564 0-42.667-19.103-42.667-42.665 0-22.054 16.728-40.196 38.187-42.436 5.813-1.941 18.334-12.335 31.293-35.371 7.153-12.719 20.312-20.898 34.883-21.687 14.566-0.789 28.54 5.943 37.026 17.809 10.423 13.124 41.161 51.78 58.509 70.263 36.54 38.935 77.956 73.915 111.582 84.5zM312.414 372.425c23.066-4.817 37.862-27.422 33.045-50.487l-28.596-136.956c-9.418-45.107-15.628-75.191-17.585-96.742-0.361-3.981-0.529-7.27-0.577-9.958 14.079 5.564 33.79 16.205 64.402 32.96l98.119 53.709c6.758 3.703 14.118 7.731 20.868 10.654 7.859 3.405 17.865 6.69 29.922 6.69s22.059-3.285 29.922-6.69c6.75-2.923 14.11-6.95 20.868-10.654l98.116-53.709c30.613-16.755 50.325-27.396 64.405-32.96-0.047 2.688-0.218 5.978-0.58 9.958-1.954 21.551-8.166 51.635-17.583 96.742l-28.595 136.956c-4.817 23.066 9.98 45.67 33.045 50.487s45.67-9.98 50.487-33.045l29.158-139.657c8.708-41.698 16.013-76.685 18.47-103.765 2.364-25.988 2.005-58.893-20.476-83.733-11.767-13.001-27.063-20.74-44.348-22.507-15.497-1.583-30.123 1.882-42.091 5.943-22.319 7.573-49.647 22.541-79.539 38.908l-100.326 54.916c-9.6 5.252-18.581 2.189-21.871 0l-100.329-54.916c-29.89-16.367-57.217-31.334-79.537-38.908-11.968-4.062-26.595-7.526-42.089-5.943-17.288 1.766-32.584 9.506-44.35 22.507-22.479 24.841-22.837 57.745-20.477 83.733 2.459 27.081 9.766 62.067 18.473 103.765l29.159 139.657c4.816 23.066 27.42 37.862 50.487 33.045z" />
<glyph unicode="&#xe90c;" glyph-name="birthday-cake" d="M480.243 903.163c8.094 9.018 19.639 14.17 31.757 14.17s23.663-5.152 31.757-14.17l0.183-0.213c2.099-2.421 7.782-8.978 10.91-12.751 6.413-7.736 15.053-18.554 23.791-30.7 8.623-11.991 17.95-26.124 25.297-40.394 6.635-12.891 14.729-31.594 14.729-51.105 0-43.74-26.325-81.331-64-97.791v-94.209c0-23.564-19.102-42.667-42.667-42.667s-42.667 19.103-42.667 42.667v94.209c-37.675 16.46-64 54.051-64 97.791 0 19.511 8.095 38.214 14.73 51.105 7.345 14.271 16.672 28.403 25.295 40.394 8.738 12.146 17.378 22.964 23.791 30.7 3.127 3.773 8.811 10.331 10.91 12.751l0.183 0.213zM117.333 469.333c0 80.23 72.332 138.667 152.889 138.667h483.557c80.555 0 152.887-58.437 152.887-138.667s-72.333-138.667-152.887-138.667c-46.511 0-91.43 19.324-120.892 51.558-29.457-32.235-74.377-51.558-120.887-51.558s-91.429 19.324-120.889 51.558c-29.46-32.235-74.38-51.558-120.889-51.558-80.557 0-152.889 58.436-152.889 138.667zM231.605 270.067c-12.361 2.155-18.542 3.23-21.972 1.813-3.514-1.451-5.709-3.708-7.067-7.258-1.326-3.469-0.194-9.071 2.069-20.284 10.853-53.747 19.547-96.806 30.453-130.338 11.263-34.628 25.98-62.805 51.158-84.403 25.371-21.769 54.974-31.386 89.951-35.908 33.492-4.331 75.263-4.331 126.813-4.331h18.078c51.554 0 93.321 0 126.814 4.331 34.978 4.523 64.58 14.14 89.95 35.908 25.182 21.598 39.898 49.775 51.162 84.403 10.906 33.532 19.597 76.591 30.451 130.338 2.266 11.213 3.396 16.819 2.069 20.288-1.357 3.55-3.554 5.803-7.066 7.253-3.43 1.421-9.613 0.341-21.973-1.813-12.787-2.231-25.741-3.375-38.669-3.375-37.436 0-74.526 9.101-107.328 26.069-6.963 3.605-10.449 5.406-13.564 5.406s-6.596-1.801-13.564-5.406c-32.802-16.969-69.888-26.069-107.324-26.069s-74.522 9.101-107.325 26.069c-6.966 3.605-10.449 5.406-13.564 5.406s-6.598-1.801-13.564-5.406c-32.803-16.969-69.89-26.069-107.325-26.069-12.928 0-25.88 1.143-38.663 3.375z" />
<glyph unicode="&#xe90d;" glyph-name="calendar-03" d="M298.667 874.667c0 23.564-19.103 42.667-42.667 42.667s-42.667-19.103-42.667-42.667v-19.151c16.227 5.147 33.516 8.822 51.854 11.488 10.579 1.538 21.734 2.767 33.479 3.75v3.914zM810.667 855.516c-16.226 5.147-33.515 8.822-51.853 11.488-10.581 1.538-21.734 2.767-33.481 3.75v3.914c0 23.564 19.102 42.667 42.667 42.667s42.667-19.103 42.667-42.667v-19.151zM555.895 874.667c83.127 0.001 150.178 0.003 202.918-7.663 55.040-8 100.629-25.097 136.418-63.786 35.349-38.217 50.569-86.106 57.762-143.96 7.006-56.332 7.006-128.232 7.006-218.677v-27.827c0-90.445 0-162.347-7.006-218.675-7.194-57.856-22.413-105.745-57.762-143.962-35.789-38.69-81.378-55.787-136.418-63.787-52.74-7.667-119.791-7.663-202.918-7.663h-87.791c-83.126 0-150.177-0.004-202.917 7.663-55.039 8-100.631 25.097-136.419 63.787-35.351 38.217-50.57 86.106-57.765 143.962-7.005 56.329-7.005 128.23-7.004 218.675v27.827c-0.001 90.445-0.001 162.345 7.004 218.677 7.195 57.853 22.414 105.743 57.765 143.96 35.788 38.69 81.379 55.787 136.419 63.786 52.739 7.666 119.791 7.665 202.917 7.663h87.791zM191.907 576c-19.568 0-29.352 0-35.583-6.151s-6.356-15.81-6.607-35.129c-0.372-28.723-0.384-60.872-0.384-97.096v-21.914c0-94.071 0.078-160.653 6.352-211.102 6.161-49.54 17.654-77.009 35.727-96.546 17.636-19.068 41.748-30.848 86.049-37.286 45.891-6.669 106.72-6.775 194.005-6.775h81.067c87.283 0 148.113 0.107 194.005 6.775 44.301 6.438 68.412 18.219 86.050 37.286 18.074 19.537 29.564 47.006 35.725 96.546 6.276 50.449 6.353 117.030 6.353 211.102v21.914c0 36.224-0.013 68.373-0.384 97.096-0.252 19.319-0.375 28.978-6.605 35.129-6.234 6.151-16.017 6.151-35.584 6.151h-640.186zM288 405.333c0 29.457 23.878 53.333 53.333 53.333h0.383c29.455 0 53.333-23.876 53.333-53.333s-23.878-53.333-53.333-53.333h-0.383c-29.455 0-53.333 23.876-53.333 53.333zM458.475 405.333c0 29.457 23.881 53.333 53.333 53.333h0.384c29.453 0 53.333-23.876 53.333-53.333s-23.881-53.333-53.333-53.333h-0.384c-29.453 0-53.333 23.876-53.333 53.333zM628.949 405.333c0 29.457 23.881 53.333 53.333 53.333h0.384c29.457 0 53.333-23.876 53.333-53.333s-23.876-53.333-53.333-53.333h-0.384c-29.453 0-53.333 23.876-53.333 53.333zM288 234.667c0 29.457 23.878 53.333 53.333 53.333h0.383c29.455 0 53.333-23.876 53.333-53.333s-23.878-53.333-53.333-53.333h-0.383c-29.455 0-53.333 23.876-53.333 53.333zM458.475 234.667c0 29.457 23.881 53.333 53.333 53.333h0.384c29.453 0 53.333-23.876 53.333-53.333s-23.881-53.333-53.333-53.333h-0.384c-29.453 0-53.333 23.876-53.333 53.333z" />
<glyph unicode="&#xe90e;" glyph-name="calendar-love-02" d="M298.667 874.667c0 23.564-19.103 42.667-42.667 42.667s-42.667-19.103-42.667-42.667v-19.151c16.227 5.147 33.516 8.822 51.854 11.488 10.579 1.538 21.734 2.767 33.479 3.75v3.914zM810.667 855.516c-16.226 5.147-33.515 8.822-51.853 11.488-10.581 1.538-21.734 2.767-33.481 3.75v3.914c0 23.564 19.102 42.667 42.667 42.667s42.667-19.103 42.667-42.667v-19.151zM555.895 874.667c83.127 0.001 150.178 0.003 202.918-7.663 55.040-8 100.629-25.097 136.418-63.786 35.349-38.217 50.569-86.106 57.762-143.96 7.006-56.332 7.006-128.232 7.006-218.677v-27.827c0-90.445 0-162.347-7.006-218.675-7.194-57.856-22.413-105.745-57.762-143.962-35.789-38.69-81.378-55.787-136.418-63.787-52.74-7.667-119.791-7.663-202.918-7.663h-87.791c-83.126 0-150.177-0.004-202.917 7.663-55.039 8-100.631 25.097-136.419 63.787-35.351 38.217-50.57 86.106-57.765 143.962-7.005 56.329-7.005 128.23-7.004 218.675v27.827c-0.001 90.445-0.001 162.345 7.004 218.677 7.195 57.853 22.414 105.743 57.765 143.96 35.788 38.69 81.379 55.787 136.419 63.786 52.739 7.666 119.791 7.665 202.917 7.663h87.791zM191.907 576c-19.568 0-29.352 0-35.583-6.151s-6.356-15.81-6.607-35.129c-0.372-28.723-0.384-60.872-0.384-97.096v-21.914c0-94.071 0.078-160.653 6.352-211.102 6.161-49.54 17.654-77.009 35.727-96.546 17.636-19.068 41.748-30.848 86.049-37.286 45.891-6.669 106.72-6.775 194.005-6.775h81.067c87.283 0 148.113 0.107 194.005 6.775 44.301 6.438 68.412 18.219 86.050 37.286 18.074 19.537 29.564 47.006 35.725 96.546 6.276 50.449 6.353 117.030 6.353 211.102v21.914c0 36.224-0.013 68.373-0.384 97.096-0.252 19.319-0.375 28.978-6.605 35.129-6.234 6.151-16.017 6.151-35.584 6.151h-640.186zM511.987 461.009c30.025 19.925 77.018 30.007 127.582 0.474 39.194-22.899 59.456-69.658 52.322-120.286-7.168-50.91-41.135-104.657-106.807-150.946l-2.91-2.061c-20.599-14.566-39.881-28.203-70.187-28.203-30.31 0-49.591 13.636-70.191 28.203l-2.91 2.061c-65.671 46.289-99.639 100.036-106.808 150.946-7.13 50.628 13.129 97.387 52.325 120.286 50.562 29.534 97.559 19.452 127.584-0.474z" />
<glyph unicode="&#xe90f;" glyph-name="call" d="M226.894 905.083c24.179-4.997 43.434-21.242 55.397-42.705l38.111-68.371c14.038-25.182 25.851-46.374 33.565-64.796 8.184-19.542 13.046-38.813 10.822-60.119-2.222-21.306-10.954-39.16-22.993-56.592-11.35-16.434-27.282-34.733-46.213-56.478l-56.022-64.347c-10.039-11.531-15.058-17.298-15.517-24.503-0.459-7.208 3.655-13.363 11.883-25.673 70.126-104.92 164.639-199.464 269.647-269.652 12.31-8.229 18.465-12.343 25.673-11.882 7.205 0.457 12.972 5.478 24.503 15.517l64.351 56.024c21.745 18.929 40.042 34.864 56.477 46.212 17.434 12.039 35.288 20.773 56.594 22.992 21.303 2.224 40.576-2.637 60.116-10.821 18.421-7.713 39.614-19.525 64.794-33.562l68.374-38.115c21.464-11.963 37.709-31.217 42.704-55.398 5.051-24.43-2.399-48.987-18.849-69.168-59.685-73.234-155.312-119.859-255.631-99.624-61.667 12.438-122.507 33.163-196.096 75.366-147.855 84.795-280.423 217.435-365.12 365.118-42.202 73.589-62.926 134.429-75.365 196.096-20.237 100.319 26.391 195.946 99.622 255.633 20.183 16.45 44.74 23.898 69.17 18.849z" />
<glyph unicode="&#xe910;" glyph-name="check" d="M827.003 702.668c16.364-15.619 16.966-41.547 1.348-57.91l-430.082-450.558c-7.615-7.979-18.125-12.55-29.152-12.677s-21.641 4.194-29.44 11.993l-143.36 143.36c-15.996 15.999-15.996 41.931 0 57.926 15.996 15.999 41.93 15.999 57.926 0l113.715-113.713 401.131 420.234c15.622 16.364 41.55 16.966 57.913 1.347z" />
<glyph unicode="&#xe911;" glyph-name="checkmark-circle" d="M512 906.667c253.316 0 458.667-205.352 458.667-458.667s-205.35-458.667-458.667-458.667c-253.315 0-458.667 205.35-458.667 458.667 0 253.315 205.352 458.667 458.667 458.667zM711.501 607.458c-17.37 15.921-44.369 14.745-60.292-2.625l-204.54-223.167-75.169 75.166c-16.662 16.666-43.671 16.666-60.333 0-16.662-16.661-16.662-43.669 0-60.331l106.667-106.667c8.227-8.226 19.453-12.753 31.084-12.501 11.635 0.252 22.677 5.257 30.541 13.833l234.667 256.001c15.923 17.37 14.746 44.369-2.624 60.291z" />
<glyph unicode="&#xe912;" glyph-name="clock" d="M512 888.080c243.184 0 440.32-197.138 440.32-440.322 0-243.18-197.136-440.32-440.32-440.32-243.182 0-440.32 197.14-440.32 440.32 0 243.184 197.138 440.322 440.32 440.322zM512 652.56c-22.622 0-40.96-18.338-40.96-40.96v-163.842c0-10.863 4.317-21.279 12.001-28.959l81.92-81.92c15.995-15.995 41.923-15.995 57.917 0 15.999 15.995 15.999 41.923 0 57.922l-69.919 69.919v146.88c0 22.622-18.338 40.96-40.96 40.96z" />
<glyph unicode="&#xe913;" glyph-name="close" d="M230.036 729.724c19.995 19.995 52.413 19.995 72.407 0l209.556-209.556 209.555 209.556c19.997 19.995 52.412 19.995 72.409 0 19.993-19.995 19.993-52.413 0-72.407l-209.555-209.558 209.555-209.555c19.993-19.993 19.993-52.412 0-72.405-19.997-19.997-52.412-19.997-72.409 0l-209.555 209.555-209.556-209.555c-19.995-19.997-52.413-19.997-72.407 0-19.995 19.993-19.995 52.412 0 72.405l209.555 209.555-209.555 209.558c-19.995 19.995-19.995 52.413 0 72.407z" />
<glyph unicode="&#xe914;" glyph-name="dollar-circle" d="M512 898.44c243.184 0 440.32-197.138 440.32-440.319 0-243.184-197.136-440.32-440.32-440.32-243.182 0-440.32 197.136-440.32 440.32 0 243.181 197.138 440.319 440.32 440.319zM512 693.64c-16.966 0-30.72-13.754-30.72-30.72v-17.36c-25.194-4.287-48.321-13.808-67.080-27.56-26.164-19.185-45.56-48.253-45.56-83.202 0.001-30.74 11.045-59.163 39.24-78.037 25.567-17.109 61.21-23.482 104.12-23.482 39.248 0 62.575-5.898 75.44-14.238 10.072-6.529 16.72-16.396 16.72-37.642-0.004-17.834-7.32-28.869-21-37.040-15.553-9.286-39.997-14.799-71.16-14.799-28.664 0-53.24 7.856-69.759 18.96-16.695 11.223-22.394 23.425-22.401 32.879 0 16.966-13.754 30.72-30.72 30.72s-30.72-13.754-30.72-30.72c0.007-36.143 21.807-65.221 49.56-83.878 20.505-13.783 45.819-23.175 73.32-27.202v-16.998c0-16.966 13.754-30.72 30.72-30.72s30.72 13.754 30.72 30.72v16.359c26.075 2.789 51.098 9.49 71.922 21.918 30.777 18.375 50.954 48.665 50.958 89.801 0 37.745-13.844 69.181-44.72 89.203-28.094 18.207-66.208 24.117-108.88 24.117-39.002 0-59.687 6.242-69.96 13.119-7.635 5.116-11.96 12.1-11.96 26.96 0 10.67 5.837 22.934 20.439 33.642 14.586 10.693 36.225 18.24 61.481 18.24s46.895-7.547 61.481-18.24c14.602-10.708 20.439-22.972 20.439-33.642 0.004-16.962 13.754-30.72 30.72-30.72s30.716 13.758 30.72 30.72c0 34.948-19.395 64.017-45.56 83.202-18.76 13.752-41.886 23.273-67.080 27.56v17.36c0 16.966-13.754 30.72-30.72 30.72z" />
<glyph unicode="&#xe915;" glyph-name="facebook" d="M512 960c282.761 0 512-229.24 512-512 0-255.559-187.241-467.376-432-505.776v357.777h119.305l22.696 147.999h-142v96.057c0 5.057 0.304 10.103 0.973 15.053 0.998 7.433 2.819 14.652 5.584 21.419 10.129 24.815 33.163 43.472 76.888 43.472h64.555v126c0 0-44.865 7.669-93.611 9.583-6.96 0.273-14 0.417-21.001 0.417-3.661 0-7.282-0.056-10.86-0.195-28.595-1.105-54.588-6.629-77.417-16.333-5.7-2.423-11.201-5.113-16.501-8.056-55.683-30.935-88.607-90.402-88.61-174.612v-112.805h-130v-147.999h130v-357.777c-244.76 38.4-432 250.217-432 505.776 0 282.76 229.24 512 512 512z" />
<glyph unicode="&#xe916;" glyph-name="favourite" d="M176.849 816.847c127.188 78.017 241.289 46.924 310.217-4.841 11.341-8.516 19.123-14.344 24.917-18.28 5.794 3.936 13.577 9.764 24.917 18.28 68.928 51.765 183.031 82.858 310.217 4.841 87.949-53.946 137.434-166.633 120.068-296.105-17.446-130.099-101.653-277.239-279.983-409.233-61.926-45.862-107.375-79.522-175.219-79.522s-113.292 33.66-175.217 79.522c-178.33 131.994-262.536 279.134-279.984 409.233-17.365 129.472 32.121 242.158 120.068 296.105z" />
<glyph unicode="&#xe917;" glyph-name="female" d="M405.212 341.312c17.417-41.745 58.579-71.117 106.596-71.117 48.021 0 89.182 29.372 106.598 71.117h-213.195zM935.249 162.564l-37.572 211.921c24.811 22.758 40.7 55.044 40.7 91.277 0 50.987-30.925 95.718-76.42 114.705-29.252 169.287-175.765 294.199-350.11 294.199-165.851 0-311.832-117.623-347.412-281.007l-25.77-145.676c0 0 57.084 0.034 63.198 0.461 63.056 1.566 121.597 17.638 174.309 42.385-4.016-7.501-6.505-15.932-6.505-25.033 0-29.44 23.886-53.338 53.317-53.338 29.432 0 53.317 23.898 53.317 53.338 0 27.772-21.325 50.278-48.448 52.766 80.081 45.798 167.59 122.424 230.468 244.491 74.146-44.482 126.541-121.89 136.243-213.698l2.807-26.488 26.197-4.766c25.344-4.625 43.721-26.633 43.721-52.339 0-29.406-23.923-53.338-53.316-53.338h-40.841l-7.821-22.187c-32.593-92.378-142.212-191.228-253.466-191.228-101.694 0-213.268 86.229-248.812 177.856h-136.916l-38.459-217.429c-6.896-33.958 1.706-68.873 23.637-95.684 21.931-26.88 54.418-42.278 89.109-42.313l204.842-0.107v127.723c33.767-13.265 69.594-21.124 106.633-21.124s72.866 7.787 106.633 21.018v-127.582h204.809c35.861 0 69.026 16.252 90.991 44.625 21.965 28.412 29.397 64.572 20.971 96.61l-0.034-0.038zM654.020 465.762c0 29.44-23.885 53.333-53.316 53.333-29.427 0-53.316-23.893-53.316-53.333 0-29.444 23.889-53.338 53.316-53.338 29.431 0 53.316 23.893 53.316 53.338z" />
<glyph unicode="&#xe918;" glyph-name="fire" d="M454.229 904.402c9.284 3.691 19.759 2.835 28.318-2.316 182.012-109.499 350.144-296.487 405.218-476.734 27.767-90.876 27.669-183.424-18.603-262.801-46.234-79.322-134.822-139.034-270.327-172.297-13.581-3.332-27.755 2.539-34.999 14.502-7.245 11.959-5.884 27.243 3.366 37.734 55.42 62.886 104.393 136.375 111.531 213.781 5.436 58.923-13.039 125.692-83.981 196.723 0.516-75.593-28.599-138.543-57.929-174.541-7.825-9.604-20.489-13.828-32.512-10.846s-21.244 12.634-23.676 24.781c-11.725 58.624-45.030 84.446-80.503 102.626-2.405-49.95-24.192-85.905-40.049-112.068-4.479-7.394-8.484-14.003-11.446-19.925-47.178-94.357 9.944-162.837 49.467-210.219v0c3.248-3.895 6.377-7.646 9.319-11.26 9.121-11.191 9.615-27.106 1.207-38.844-8.408-11.742-23.636-16.393-37.169-11.362-122.193 45.444-208.617 130.569-240.617 234.432-32.198 104.499-7.514 222.229 81.232 328.118 28.469 33.968 53.344 62.144 75.247 86.953 77.047 87.273 117.318 132.887 147.908 242.432 2.688 9.622 9.715 17.437 18.999 21.129z" />
<glyph unicode="&#xe919;" glyph-name="flower-pot" d="M498.509 909.81c8.755 2.92 18.227 2.92 26.982 0 43.153-14.384 71.177-42.936 87.893-66.344 5.338-7.473 9.664-14.608 13.099-20.903 19.486 3.304 38.677 4.104 56.183 4.104 23.565 0 42.667-19.103 42.667-42.667 0-70.592-17.609-134.135-54.451-181.027-37.73-48.023-92.966-74.973-158.882-74.973s-121.151 26.95-158.883 74.973c-36.844 46.892-54.45 110.435-54.45 181.027 0 23.564 19.103 42.667 42.667 42.667 17.524 0 36.714-0.803 56.184-4.104 3.433 6.295 7.759 13.43 13.097 20.903 16.718 23.408 44.742 51.96 87.895 66.344zM405.026 732.772c-5.458 2.038-11.305 3.645-17.561 4.89 5.513-34.803 17.26-62.252 32.751-81.968 12.291-15.642 27.737-27.517 46.647-34.658-3.439 32.031-10.159 54.761-18.146 70.862-10.931 22.036-24.904 33.126-40.587 39.651l-2.176 0.87-0.928 0.353zM512 752.38c-10.21 14.951-21.973 27.215-34.91 37.139 0.922 1.418 1.907 2.872 2.961 4.349 7.646 10.704 18.069 21.519 31.949 29.106 13.879-7.587 24.303-18.403 31.949-29.106 1.054-1.477 2.039-2.931 2.961-4.349-12.937-9.924-24.7-22.188-34.91-37.139zM557.137 621.036c18.91 7.141 34.355 19.016 46.647 34.658 15.488 19.716 27.238 47.165 32.751 81.968-6.724-1.337-12.971-3.092-18.765-5.349l-1.865-0.751c-15.697-6.522-29.683-17.612-40.623-39.665-7.987-16.101-14.707-38.831-18.146-70.862zM512.013 613.333c23.565 0 42.667-19.103 42.667-42.667v-63.539c23.322 12.535 51.648 20.873 85.333 20.873 23.565 0 42.667-19.102 42.667-42.667s-19.102-42.667-42.667-42.667c-47.603 0-75.255-31.812-85.333-51.558v-76.442c0-23.565-19.102-42.667-42.667-42.667s-42.667 19.102-42.667 42.667v84.352c-0.017 0.657-0.017 1.314 0 1.975v169.673c0 23.564 19.102 42.667 42.667 42.667zM563.362 346.667c41.852 0 76.399 0 103.053-3.447 27.392-3.546 53.508-11.477 72.034-33.306 19.319-22.758 21.107-49.54 17.131-75.836-3.703-24.465-13.389-54.583-24.713-89.796v0l-0.828-2.573-4.587-14.268c-8.96-27.87-16.585-51.593-25.331-70.306-9.399-20.113-21.265-37.15-40.141-50.001l-0.188-0.128-1.323-0.883c-18.743-12.373-39.454-17.476-62.494-19.849-22.063-2.274-49.284-2.274-82.313-2.274v0h-3.354c-33.028 0-60.25 0-82.308 2.274-23.043 2.372-43.756 7.475-62.499 19.853l-0.189 0.124-1.318 0.883c-18.879 12.851-30.741 29.888-40.142 50.001-8.749 18.714-16.373 42.436-25.332 70.306v0.004l-5.413 16.832c-11.323 35.217-21.008 65.335-24.712 89.801-3.98 26.295-2.189 53.077 17.129 75.836 18.526 21.828 44.641 29.76 72.036 33.306 26.654 3.447 61.201 3.447 103.055 3.447v0h102.746z" />
<glyph unicode="&#xe91a;" glyph-name="gift" d="M790.485 693.333c18.957 0 34.889 0.001 47.881-0.941 13.483-0.977 26.577-3.105 39.053-8.867 14.131-6.526 26.756-16.318 35.955-29.065 8.691-12.044 11.938-25.020 13.35-37.483 1.28-11.283 1.276-24.813 1.276-39.441v-3.070c0-14.629 0.004-28.158-1.276-39.441-1.412-12.463-4.659-25.438-13.35-37.483-9.199-12.749-21.824-22.537-35.955-29.065-12.476-5.764-25.57-7.889-39.053-8.866-12.992-0.943-28.924-0.943-47.885-0.943h-556.963c-18.96 0-34.892 0-47.883 0.943-13.484 0.977-26.577 3.102-39.053 8.866-14.13 6.528-26.757 16.316-35.956 29.065-8.692 12.045-11.939 25.020-13.351 37.483-1.278 11.283-1.277 24.813-1.275 39.442v3.069c-0.001 14.629-0.003 28.159 1.275 39.442 1.412 12.463 4.658 25.439 13.351 37.483 9.199 12.747 21.826 22.539 35.956 29.065 12.476 5.763 25.569 7.89 39.053 8.867 12.991 0.942 28.922 0.942 47.882 0.941h556.968zM161.569 408.823c-11.237 1.894-16.856 2.842-19.879 0.286s-3.023-7.799-3.023-18.283v-73.143c-0.001-68.378-0.001-122.948 5.753-165.747 5.944-44.211 18.553-80.627 47.359-109.431s65.218-41.412 109.432-47.36c42.799-5.751 97.367-5.751 165.747-5.751 1.31 0 2.377 1.067 2.377 2.377v396.557c0 8.047 0 12.066-2.5 14.566s-6.519 2.5-14.566 2.5h-220.198c-17.777 0-35.352-0.004-50.291 1.079-6.202 0.452-13.006 1.139-20.208 2.351zM571.733 405.393c-8.047 0-12.066 0-14.566-2.5s-2.5-6.519-2.5-14.566v-396.557c0-1.31 1.067-2.377 2.377-2.377 68.378 0 122.948 0 165.747 5.751 44.215 5.948 80.627 18.556 109.431 47.36s41.412 65.22 47.36 109.431c5.751 42.799 5.751 97.37 5.751 165.747v73.148c0 10.479 0 15.723-3.025 18.278-3.021 2.556-8.64 1.609-19.878-0.286-7.202-1.212-14.007-1.899-20.207-2.351-14.942-1.084-32.512-1.079-50.291-1.079h-220.198zM332.19 906.667h15.238c67.068 0 126.696-31.859 164.571-81.269 37.875 49.41 97.502 81.269 164.57 81.269h15.241c65.643 0 118.857-53.214 118.857-118.857 0-99.306-80.503-179.81-179.81-179.81h-237.713c-99.306 0-179.81 80.503-179.81 179.81 0 65.643 53.214 118.857 118.857 118.857zM469.333 699.429c0 67.326-54.579 121.905-121.905 121.905h-15.238c-18.514 0-33.524-15.009-33.524-33.524 0-52.178 42.298-94.476 94.476-94.476h76.19v6.095zM554.667 693.333h76.19c52.177 0 94.477 42.298 94.477 94.476 0 18.514-15.010 33.524-33.523 33.524h-15.241c-67.324 0-121.903-54.579-121.903-121.905v-6.095z" />
<glyph unicode="&#xe91b;" glyph-name="gift-card" d="M437.842 386.441l-70.442-70.443c-11.997-11.993-11.997-31.441 0-43.438s31.443-11.997 43.44 0l70.44 70.439v-243.278h-135.36c-56.012-0.004-101.17-0.016-136.68 4.76-36.869 4.956-67.906 15.585-92.56 40.239s-35.283 55.693-40.24 92.561c-4.773 35.508-4.761 80.667-4.76 136.679v12.481h366.162zM952.32 373.961c0-56.013 0.012-101.171-4.76-136.679-4.956-36.868-15.585-67.908-40.239-92.561-24.658-24.654-55.693-35.283-92.561-40.239-35.508-4.776-80.667-4.764-136.679-4.76h-135.361v243.278l70.439-70.439c11.997-11.997 31.445-11.997 43.442 0s11.997 31.445 0 43.438l-70.443 70.443h366.162v-12.481zM678.081 816.52c56.013 0.001 101.171 0.013 136.679-4.76 36.868-4.957 67.908-15.586 92.561-40.24s35.283-55.692 40.239-92.56c4.772-35.51 4.76-80.667 4.76-136.678v-94.401h-188.080c17.080 28.647 24.24 63.164 24.24 96.080 0 26.212-4.268 49.216-14.279 67.679-10.51 19.369-26.677 32.384-46.522 37.96-36.422 10.227-77.128-6.357-109.437-27.16-26.825-17.27-53.232-40.847-75.522-67.2v261.28h135.361zM481.28 555.24c-22.29 26.353-48.697 49.931-75.52 67.2-32.311 20.803-73.017 37.387-109.44 27.16-19.846-5.575-36.013-18.591-46.52-37.96-10.011-18.463-14.28-41.467-14.28-67.679 0-32.915 7.161-67.432 24.24-96.080h-188.080v94.401c-0.001 56.010-0.013 101.169 4.76 136.678 4.957 36.869 15.586 67.906 40.24 92.56s55.692 35.283 92.56 40.24c35.509 4.773 80.668 4.761 136.68 4.76h135.36v-261.28zM312.96 590.44c9.663 2.703 30.41-0.939 59.52-19.68 27.271-17.558 55.206-44.244 76.118-73.481 12.341-17.248 21.336-34.087 26.722-49.398h-106.72c-25.079 0.012-41.493 10.445-52.72 26.358-12.075 17.121-18.92 42.070-18.92 69.722 0 20.311 3.417 32.088 6.84 38.399 2.931 5.403 5.971 7.185 9.16 8.080zM651.522 570.76c29.11 18.741 49.857 22.383 59.519 19.68 3.187-0.895 6.23-2.678 9.159-8.080 3.424-6.311 6.84-18.088 6.84-38.399 0-27.652-6.844-52.601-18.919-69.722-11.227-15.913-27.64-26.345-52.72-26.358h-106.721c5.386 15.311 14.381 32.15 26.722 49.398 20.914 29.237 48.849 55.923 76.12 73.481z" />
<glyph unicode="&#xe91c;" glyph-name="healthcare" d="M537.281 869.208c40.276 29.223 106.799 46.295 179.56 3.175 51.974-30.803 79.466-93.859 69.755-163.812-9.798-70.588-56.799-148.543-153.194-217.477-31.601-22.639-60.322-43.213-100.856-43.213s-69.259 20.574-100.86 43.213c-96.396 68.934-143.396 146.889-153.195 217.477-9.711 69.954 17.782 133.009 69.757 163.812 72.76 43.12 139.283 26.048 179.559-3.175l4.739-3.43 4.735 3.43zM264.407 406.921c-17.728 0-33.982 0.004-47.205-1.774-14.56-1.958-29.95-6.566-42.608-19.223s-17.263-28.045-19.221-42.607c-1.778-13.222-1.776-29.479-1.774-47.206v-106.832c-0.002-13.443-0.003-26.038 1.224-36.561 1.365-11.715 4.526-24.031 13.012-35.402 8.486-11.366 19.393-17.904 30.234-22.544 9.741-4.17 21.816-7.75 34.702-11.571l204.755-60.76c29.676-8.802 61.477-4.973 88.306 10.506l307.839 177.619c38.224 22.053 48.058 72.905 22.602 108.159-28.377 39.297-77.963 56.619-124.269 42.222l-0.061-0.020-87.060-26.747c-10.183-3.129-15.278-4.694-16.876-7.631-1.593-2.941 0.311-9.634 4.121-23.028 2.904-10.207 3.248-20.001 2.753-25.514 0-40.194-27.402-72.651-62.804-82.44l-104.075-28.774c-37.753-10.437-78.19-6.849-113.538 10.256l-66.367 32.113c-12.727 6.156-18.053 21.467-11.895 34.193s21.467 18.051 34.194 11.895l66.367-32.113c24.109-11.665 51.768-14.135 77.594-6.996l104.075 28.774c14.34 3.965 25.248 17.068 25.248 33.092 0 57.876-48.198 72.581-105.509 72.581l-42.705 0.004c-7.445 0-14.751 1.679-21.327 4.862l-83.64 40.468c-14.975 7.246-31.436 10.998-48.087 10.998h-18.005z" />
<glyph unicode="&#xe91d;" glyph-name="idea" d="M660.181 293.88c4.243-0.262 10.338-0.93 16.72-3.518 19.407-7.889 31.56-26.456 32.477-46.481 0.303-6.55-0.893-12.3-1.958-16.441-1.004-3.899-2.441-8.442-3.879-12.96-5.005-15.761-10.224-32.125-16.761-42.918-9.941-16.404-24.175-29.577-41.001-38.121l-3.641-18.239c-3.727-18.817-7.111-35.832-15.196-50.119-12.399-21.901-32.723-38.81-57.401-46.961-16.187-5.345-38.683-5.313-57.639-5.28-18.964-0.033-41.456-0.066-57.643 5.28-24.676 8.151-45.004 25.059-57.399 46.961-8.086 14.287-11.472 31.298-15.2 50.119l-3.64 18.28c-16.776 8.544-30.959 21.709-40.88 38.081-6.539 10.793-11.757 27.156-16.76 42.918-1.438 4.518-2.877 9.056-3.88 12.96-1.063 4.141-2.299 9.892-2 16.441 0.921 20.025 13.108 38.593 32.52 46.481 6.381 2.589 12.476 3.256 16.72 3.518 3.969 0.246 8.627 0.242 13.12 0.242h270.202c4.493 0 9.15 0.004 13.119-0.242zM457.859 122.72c3.437-16.593 4.526-20.3 5.923-22.761 3.592-6.341 9.179-10.703 15.278-12.718 2.458-0.811 6.431-1.319 32.842-1.319 26.464 0 30.421 0.508 32.879 1.319 6.095 2.015 11.649 6.386 15.241 12.718 1.393 2.462 2.486 6.169 5.919 22.761h-108.081zM512.020 550.4c56.545-0.012 102.4-45.855 102.4-102.4s-45.855-102.388-102.4-102.4c-56.553 0-102.4 45.847-102.4 102.4s45.847 102.4 102.4 102.4zM512 678.28c-123.224 0-225.28-103.424-225.28-233.712 0-35.025 7.402-68.121 20.605-97.8 9.195-20.668-0.106-44.876-20.775-54.071s-44.878 0.106-54.073 20.775c-17.797 40.006-27.677 84.431-27.677 131.097 0 173.106 136.344 315.632 307.2 315.632s307.2-142.527 307.2-315.632c0-46.666-9.88-91.091-27.677-131.097-9.196-20.668-33.403-29.97-54.071-20.775s-29.97 33.403-20.775 54.071c13.201 29.68 20.603 62.775 20.603 97.8 0 130.289-102.056 233.712-225.28 233.712zM512 903.56c22.622 0 40.96-18.338 40.96-40.96v-40.96c0-22.621-18.338-40.96-40.96-40.96s-40.96 18.339-40.96 40.96v40.96c0 22.622 18.338 40.96 40.96 40.96zM830.562 771.593c15.995-15.996 15.995-41.93 0-57.926l-28.963-28.963c-15.995-15.996-41.931-15.996-57.926 0s-15.995 41.93 0 57.926l28.963 28.963c15.995 15.996 41.931 15.996 57.926 0zM193.434 771.576c15.996 15.996 41.93 15.996 57.926 0l28.963-28.963c15.996-15.996 15.996-41.93 0-57.926s-41.93-15.996-57.926 0l-28.963 28.963c-15.996 15.996-15.996 41.93 0 57.926zM61.44 453.001c0 22.622 18.339 40.96 40.96 40.96h40.96c22.621 0 40.96-18.338 40.96-40.96s-18.339-40.96-40.96-40.96h-40.96c-22.621 0-40.96 18.338-40.96 40.96zM839.68 453.001c0 22.622 18.338 40.96 40.96 40.96h40.96c22.622 0 40.96-18.338 40.96-40.96s-18.338-40.96-40.96-40.96h-40.96c-22.622 0-40.96 18.338-40.96 40.96z" />
<glyph unicode="&#xe91e;" glyph-name="lamp" d="M505.405 898.444h13.193c60.584 0.018 99.77 0.029 134.599-14.121 18.694-7.596 36.086-18.090 51.544-31.097 28.778-24.209 47.264-58.957 75.94-112.855l37.122-69.727c27.632-51.894 50.008-93.926 62.157-127.986 12.456-34.906 17.166-69.497-1.671-101.282-18.895-31.879-51.507-44.138-88.011-49.611-35.537-5.325-82.87-5.325-141.21-5.325h-274.133c-58.339 0-105.669 0-141.207 5.325-36.506 5.472-69.118 17.732-88.010 49.611-18.837 31.785-14.127 66.376-1.674 101.282 12.15 34.060 34.529 76.093 62.16 127.988v0l37.121 69.725c28.676 53.898 47.163 88.645 75.939 112.854 15.46 13.007 32.852 23.502 51.546 31.097 34.825 14.15 74.012 14.139 134.596 14.121zM552.96 417.165c0 22.622-18.338 40.96-40.96 40.96s-40.96-18.338-40.96-40.96v-201.318c0-6.73 0-10.097-1.782-12.333-1.782-2.241-5.505-3.097-12.947-4.813-16.052-3.699-31.431-11.608-43.913-22.319-13.81-11.854-22.58-28.221-31.715-43.672-10.824-18.285-24.871-38.662-21.868-61.018 2.703-20.124 15.577-36.119 31.951-45.117 10.467-5.755 21.831-7.356 31.502-8.065 9.618-0.705 21.607-0.705 35.382-0.705h108.708c13.771 0 25.756 0 35.373 0.705 9.667 0.709 21.029 2.31 31.494 8.061 16.376 8.999 29.254 24.994 31.957 45.122 3.002 22.348-11.035 42.721-21.852 61.002-9.134 15.454-17.9 31.822-31.707 43.676-12.501 10.732-27.877 18.616-43.95 22.34-7.434 1.72-11.153 2.585-12.935 4.821-1.778 2.236-1.778 5.603-1.778 12.333v201.302z" />
<glyph unicode="&#xe91f;" glyph-name="location" d="M512.082 898.44c156.713-0.007 306.217-92.711 368.8-239 58.163-135.975 26.767-251.966-38.801-351.282-54.387-82.375-134.005-155.714-205.599-221.68-12.714-11.71-25.182-23.183-37.2-34.439-23.552-22.049-54.833-34.234-87.2-34.238-32.375 0-63.689 12.186-87.242 34.238l-0.040 0.041c-12.721 11.981-25.976 24.232-39.48 36.721-70.821 65.491-149.339 138.101-203.16 219.439-65.639 99.205-97.154 215.065-38.92 351.2 62.583 146.295 212.12 239 368.842 239zM512 662.92c-90.486 0-163.84-73.354-163.84-163.839 0-90.489 73.354-163.84 163.84-163.84 90.485 0 163.84 73.351 163.84 163.84 0 90.485-73.355 163.839-163.84 163.839z" />
<glyph unicode="&#xe920;" glyph-name="mail" d="M621.867 835.492l3.064-0.077c61.825-1.55 112.693-2.825 153.69-9.957 15.167-2.638 29.475-6.147 42.983-10.91 3.592-0.845 7.037-2.168 10.252-3.923 21.131-8.758 40.235-21.028 57.573-38.414 30.7-30.776 45.396-66.636 52.842-109.462 6.988-40.191 8.049-89.789 9.327-149.816l0.066-3.088c0.872-40.874 0.872-62.579 0-103.453l-0.066-3.088c-1.278-60.027-2.335-109.621-9.327-149.815-7.442-42.824-22.143-78.684-52.842-109.462-30.859-30.937-67.293-45.679-110.805-53.248-41.001-7.131-91.869-8.405-153.694-9.953l-3.064-0.078c-80.11-2.011-139.624-2.011-219.733 0l-3.066 0.074c-61.823 1.552-112.691 2.826-153.69 9.957-43.515 7.569-79.949 22.311-110.809 53.248-30.697 30.777-45.396 66.638-52.842 109.462-6.988 40.19-8.046 89.788-9.325 149.815l-0.066 3.088c-0.873 40.874-0.873 62.579-0.001 103.453l0.066 3.088c1.28 60.029 2.338 109.625 9.326 149.816 7.446 42.826 22.145 78.686 52.842 109.462 30.859 30.938 67.294 45.679 110.808 53.248 41 7.131 91.867 8.406 153.691 9.956l3.066 0.077c80.11 2.010 139.624 2.010 219.734 0zM867.525 587.132c-0.795 16.61-1.192 24.914-7.205 28.23s-13.41-0.874-28.197-9.252l-173.494-98.304c-53.236-30.163-98.255-49.684-146.637-49.684s-93.403 19.522-146.635 49.684l-173.482 98.295c-14.787 8.379-22.181 12.568-28.196 9.252s-6.411-11.621-7.203-28.231c-1.068-22.385-1.647-48.334-2.302-79.018-0.848-39.715-0.847-60.256 0.001-99.967 1.364-63.898 2.399-107.278 8.203-140.661 5.466-31.433 14.584-50.11 30.183-65.749 15.437-15.475 34.367-24.752 66.86-30.405 34.332-5.968 79.111-7.197 144.767-8.843 78.737-1.978 136.884-1.978 215.621 0 65.655 1.647 110.436 2.875 144.769 8.847 32.489 5.648 51.421 14.926 66.859 30.401 15.598 15.639 24.719 34.316 30.183 65.749 5.804 33.382 6.84 76.763 8.204 140.661 0.848 39.711 0.848 60.252 0 99.967-0.655 30.687-1.237 56.639-2.302 79.027z" />
<glyph unicode="&#xe921;" glyph-name="male" d="M614.451 341.333c-17.651-41.741-59.362-71.113-108.023-71.113-48.666 0-90.376 29.372-108.026 71.113h216.049zM596.224 519.113c-29.824 0-54.029-23.893-54.029-53.333s24.205-53.333 54.029-53.333c29.824 0 54.029 23.893 54.029 53.333s-24.205 53.333-54.029 53.333zM938.667 465.779c0-65.852-52.083-119.893-117.713-124.16-32.132-69.086-94.012-136.358-170.449-176.427v-143.859h-288.158v144.213c-89.942 47.927-156.687 127.607-184.422 211.341 25.43-0.213 50.608 1.886 74.921 5.406 36.669-90.099 144.62-183.219 253.617-183.219 112.742 0 223.829 98.846 256.823 191.185l10.159 28.407c6.916-0.994 32.559-6.259 39.151-6.221 29.79 0 54.033 23.927 54.033 53.333h-0.252c0 25.707-18.662 47.714-44.305 52.335l-26.547 4.766-2.846 26.489c-9.796 91.805-62.929 169.209-138.065 213.689-64.802-123.769-150.673-197.725-233.914-244.372 27.664-2.313 49.454-24.96 49.454-52.873 0-29.44-24.205-53.333-54.028-53.333s-54.030 23.893-54.030 53.333c0 9.101 2.522 17.527 6.592 25.033-53.417-24.747-112.742-40.819-176.642-42.385-6.195-0.388-64.044-0.461-64.044-0.461l26.115 145.671c36.056 163.377 183.99 280.995 352.061 280.995 176.678 0 325.15-124.907 354.795-294.187 46.106-18.951 77.444-63.714 77.444-114.701h0.252z" />
<glyph unicode="&#xe922;" glyph-name="manager" d="M346.030 447.881h2.13c12.14 0 23.142-7.152 28.072-18.244l135.768-305.48 135.766 305.48c4.932 11.092 15.933 18.244 28.074 18.244h2.13c36.803 0 67.49 0 91.853-3.273 25.715-3.457 48.931-11.063 67.584-29.721 18.657-18.657 26.264-41.873 29.721-67.588 3.277-24.359 3.273-55.050 3.273-91.849v-73.83c0-77.234 0-115.851-23.994-139.846s-62.611-23.994-139.846-23.994h-389.12c-77.235 0-115.852 0-139.846 23.994s-23.994 62.611-23.994 139.846v73.83c-0.001 36.803-0.002 67.49 3.273 91.849 3.457 25.715 11.062 48.931 29.719 67.588s41.872 26.264 67.586 29.721c24.362 3.273 55.051 3.273 91.852 3.273zM444.908 433.312c5.599 9.056 15.487 14.569 26.132 14.569h81.92c10.646 0 20.533-5.513 26.132-14.569 5.595-9.056 6.107-20.365 1.343-29.889l-36.798-73.601 19.325-154.612c0.569-4.551 0.111-9.175-1.339-13.525l-20.48-61.44c-4.182-12.546-15.921-21.004-29.143-21.004s-24.961 8.458-29.143 21.004l-20.48 61.44c-1.45 4.35-1.909 8.974-1.339 13.525l19.325 154.612-36.798 73.601c-4.764 9.523-4.252 20.832 1.343 29.889zM337.92 724.36c0 96.142 77.938 174.080 174.080 174.080s174.080-77.938 174.080-174.080v-40.96c0-96.142-77.939-174.079-174.080-174.079s-174.080 77.937-174.080 174.079v40.96z" />
<glyph unicode="&#xe923;" glyph-name="messenger" d="M512 960c288.424 0 512-211.275 512-496.644-0.004-285.363-223.579-496.64-512-496.644-51.807 0-101.515 6.839-148.214 19.679-9.074 2.501-18.745 1.799-27.357-2l-101.607-44.855c-26.583-11.736-56.609 7.161-57.5 36.213l-2.786 91.070c-0.342 11.224-5.386 21.731-13.75 29.217-99.613 89.088-160.785 218.061-160.786 367.32 0 285.369 223.574 496.644 512 496.644zM819.463 577.894c14.416 22.896-13.725 48.682-35.284 32.32l-161.573-122.608c-5.314-4.030-11.794-6.228-18.465-6.25-6.674-0.018-13.195 2.136-18.534 6.144l-119.607 89.713c-35.895 26.922-87.146 17.495-111.072-20.465l-150.393-238.607c-14.434-22.897 13.722-48.717 35.286-32.355l161.572 122.606c5.314 4.030 11.791 6.228 18.465 6.25 6.674 0.018 13.191-2.136 18.534-6.144l119.607-89.713c35.895-26.924 87.146-17.459 111.071 20.498l150.393 238.61z" />
<glyph unicode="&#xe924;" glyph-name="pine" d="M689.89 530.782h-355.838c-50.347 0-67.84 33.706-38.4 74.666l177.918 249.173c20.907 29.867 55.893 29.867 76.8 0l177.92-249.173c29.44-40.96 11.947-74.666-38.4-74.666zM750.49 191.996h-477.013c-67.413 0-90.453 44.8-50.773 99.413l170.24 239.36h238.080l170.24-239.36c39.68-54.613 16.64-99.413-50.773-99.413zM544 192v-170.667c0-17.493-14.507-32-32-32s-32 14.507-32 32v170.667h64z" />
<glyph unicode="&#xe925;" glyph-name="quote" d="M613.647 38.4l-15.058 94.377c45.176 12.585 85.332 27.684 120.468 45.302 35.139 20.134 62.746 45.302 82.824 75.502 22.589 30.203 33.884 64.177 33.884 101.929 0 20.134-5.020 37.75-15.060 52.851-7.529 15.101-23.841 23.91-48.94 26.427-22.589 5.033-48.942 12.582-79.060 22.651-27.607 12.582-52.705 32.717-75.295 60.401-20.078 30.2-30.116 70.469-30.116 120.804 0 70.469 21.332 124.579 64 162.33 45.176 37.751 96.627 56.627 154.353 56.627s107.922-22.651 150.587-67.952c45.176-45.301 67.766-120.804 67.766-226.507 0-72.986-13.804-147.231-41.411-222.733-25.098-72.986-67.766-137.162-128-192.53-57.725-55.368-138.040-91.86-240.942-109.478zM26.353 38.4l-18.824 94.377c45.176 12.585 85.333 27.684 120.471 45.302 35.137 20.134 62.745 45.302 82.823 75.502 22.588 30.203 33.882 64.177 33.882 101.929 0 20.134-5.019 37.75-15.059 52.851-7.529 15.101-23.843 23.91-48.941 26.427-22.588 5.033-47.686 12.582-75.294 22.651-27.608 12.582-52.706 32.717-75.294 60.401-20.078 30.2-30.118 70.469-30.118 120.804 0 70.469 21.333 124.579 64 162.33 45.177 37.751 95.373 56.627 150.588 56.627 57.727 0 107.921-22.651 150.588-67.952 45.176-45.301 67.766-120.804 67.766-226.507 0-72.986-12.549-147.231-37.647-222.733-25.098-72.986-67.766-137.162-128-192.53-57.726-55.368-138.040-91.86-240.942-109.478z" />
<glyph unicode="&#xe926;" glyph-name="safe" d="M601.666 823.861c-9.449 43.467-49.033 74.579-94.155 74.579-51.798 0-96.294-40.994-96.294-94.614v-15.963c-5.392 0.926-10.917 1.407-16.527 1.407-51.794 0-96.292-40.994-96.292-94.614v-208.255l-54.626 58.352c-27.060 31.281-71.406 41.231-109.285 25.522-35.319-14.647-54.508-46.715-60.543-77.566-5.995-30.642-0.405-66.007 20.702-93.426 42.593-55.325 87.146-132.211 123.878-201.658 56.782-107.356 169.048-179.823 294.722-179.823 22.028 0 39.883 17.92 39.883 40.026 0 22.11-17.854 40.030-39.883 40.030-94.719 0-180.636 54.813-224.269 137.302-37.258 70.443-84.356 152.207-131.213 213.074-5.031 6.533-7.792 17.588-5.55 29.049 2.202 11.256 7.838 16.97 12.733 19.001 6.926 2.871 14.623 0.688 18.715-4.162 0.443-0.524 0.9-1.036 1.37-1.54l91.383-97.612c34.109-36.438 101.75-16.499 101.75 39.612v262.072c0 6.673 6.013 14.556 16.527 14.556s16.527-7.883 16.527-14.556v-136.462c0-22.108 17.856-40.028 39.884-40.028 22.024 0 39.883 17.92 39.883 40.028v245.633c0 6.673 6.013 14.556 16.527 14.556 10.51 0 16.527-7.883 16.527-14.556v-245.633c0-22.108 17.854-40.028 39.879-40.028 22.028 0 39.883 17.92 39.883 40.028v172.853c0 6.673 6.013 14.556 16.527 14.556s16.527-7.883 16.527-14.556v-172.853c0-22.108 17.859-40.028 39.883-40.028 22.028 0 39.883 17.92 39.883 40.028v63.682c0 6.673 6.013 14.556 16.527 14.556s16.527-7.883 16.527-14.556c0-22.107 17.854-40.029 39.883-40.029s39.883 17.922 39.883 40.029c0 53.62-44.499 94.614-96.293 94.614-5.612 0-11.133-0.481-16.527-1.407v15.963c0 53.62-44.495 94.614-96.293 94.614-6.353 0-12.595-0.617-18.661-1.799zM737.28 488.841c-18.113 0-35.078-6.205-55.321-13.64l-69.038-25.281c-24.531-8.942-45.085-16.445-60.203-30.802-9.273-8.806-16.765-19.337-22-30.999-8.565-19.104-8.516-40.854-8.479-66.322-0.008-44.892-0.033-98.853 7.119-125.358 8.815-32.666 25.534-62.726 48.64-87.679 18.727-20.218 42.963-35.697 81.56-60.281 15.839-10.113 35.914-22.897 50.483-26.96 17.801-4.964 36.676-4.964 54.477 0 14.565 4.063 34.611 16.851 50.442 26.96 38.605 24.588 62.874 40.055 81.601 60.281 23.106 24.953 39.784 55.013 48.599 87.679 7.152 26.505 7.168 80.466 7.16 125.358 0.037 25.473 0.049 47.215-8.52 66.322-5.235 11.657-12.689 22.196-21.959 30.999-15.118 14.356-35.672 21.86-60.203 30.802l-69.079 25.281c-20.234 7.43-37.171 13.636-55.28 13.64zM774.681 333.959c10.596 13.251 29.95 15.397 43.201 4.801 13.246-10.596 15.397-29.95 4.801-43.201l-54.28-67.838c-5.82-7.283-12.014-15.024-18.080-20.763-7.041-6.656-17.568-14.213-32.403-15.041-14.836-0.819-26.145 5.526-33.878 11.362l-29.958 28.32c-11.985 11.993-11.985 31.445 0 43.438 11.993 11.997 31.482 11.997 43.479 0l16.679-16.597c0.205 0.25 4.37 5.399 7.119 8.839l53.322 66.679z" />
<glyph unicode="&#xe927;" glyph-name="search" d="M716.497 243.503c16.661 16.661 43.678 16.661 60.339 0l192-192c16.661-16.661 16.661-43.678 0-60.339s-43.678-16.661-60.339 0l-192 192c-16.661 16.661-16.661 43.678 0 60.339zM42.667 490.667c0 235.642 191.025 426.667 426.667 426.667 235.639 0 426.667-191.025 426.667-426.667 0-235.639-191.027-426.667-426.667-426.667-235.642 0-426.667 191.027-426.667 426.667zM469.333 832c-188.513 0-341.333-152.82-341.333-341.333s152.82-341.333 341.333-341.333c188.514 0 341.333 152.819 341.333 341.333s-152.819 341.333-341.333 341.333z" />
<glyph unicode="&#xe928;" glyph-name="shopee" d="M731.634 725.53h-49.362c0 102.081-71.97 185.108-160.427 185.108s-160.427-83.027-160.427-185.108h-49.362c0 129.279 94.108 234.47 209.789 234.47s209.789-105.19 209.789-234.47zM940.251 737.833c14.091 0 25.333-11.765 24.667-25.833l-31.391-669.834c-2.466-52.668-45.918-94.111-98.637-94.111h-626.057c-52.717 0.003-96.143 41.444-98.611 94.111l-31.417 669.834c-0.666 14.068 10.575 25.832 24.667 25.833h836.779zM523.554 588.055c-85.367 0-149.746-53.453-149.749-124.359 0-80.387 73.623-107.287 138.584-131.029 75.765-27.691 121.771-48.751 121.776-107.332 0-45.116-51.015-81.803-113.749-81.806-70.647 0-131.393 51.894-132.028 52.443l-3.166 2.918-25.808-38.056 2.611-2.139c17.573-14.242 80.865-60.666 158.362-60.666 89.318 0.003 159.278 55.93 159.278 127.306-0.031 94.64-80.614 124.066-151.694 150.056-67.641 24.727-108.695 43.014-108.695 88.277 0.003 45.685 43.833 78.859 104.252 78.859 41.58 0 77.952-16.296 95.943-25.97 3.061-1.653 11.696-6.83 16.583-10.112l3.223-2.167 23.64 38.474-3.891 2.526c-19.055 12.86-70.426 42.775-135.472 42.778z" />
<glyph unicode="&#xe929;" glyph-name="square-lock" d="M512 888.080c124.42 0 225.28-100.861 225.28-225.28v-72.8c64.209-19.651 112.677-76.153 121.881-144.519 6.066-45.068 11.239-92.422 11.239-141.083 0-48.656-5.173-96.014-11.239-141.079-11.125-82.616-79.581-147.923-163.881-151.798-58.507-2.691-117.916-4.084-183.28-4.084s-124.774 1.393-183.28 4.084c-84.298 3.875-152.757 69.181-163.88 151.798-6.067 45.064-11.24 92.422-11.24 141.079 0 48.66 5.173 96.014 11.24 141.083 9.205 68.366 57.67 124.868 121.88 144.519v72.8c0 124.419 100.861 225.28 225.28 225.28zM511.721 365.838c-33.78 0-61.161-27.509-61.161-61.44 0-33.927 27.382-61.436 61.161-61.44h0.557c33.78 0.004 61.161 27.513 61.161 61.44 0 33.931-27.382 61.44-61.161 61.44h-0.557zM512 806.16c-79.176 0-143.36-64.184-143.36-143.36v-63.92c45.782 1.625 92.791 2.48 143.36 2.48s97.579-0.855 143.36-2.48v63.92c0 79.176-64.184 143.36-143.36 143.36z" />
<glyph unicode="&#xe92a;" glyph-name="tiktok" d="M433.198 401.178c-13.821 4.329-28.433 6.844-43.665 6.844-81.596 0-147.986-66.389-147.986-147.991 0-56.821 32.236-106.192 79.339-130.984 20.54-10.806 43.873-17.001 68.648-17.001 79.716 0 144.742 63.411 147.701 142.416l0.284 705.539h176.046c0-15.262 1.473-30.176 4.159-44.67 12.419-67.078 52.23-124.624 107.389-160.586 38.411-25.046 84.21-39.664 133.379-39.664v-176.046c-91.284 0-175.878 29.204-244.927 78.766v-357.766c0-178.677-145.357-324.031-324.031-324.031-69.049 0-133.069 21.774-185.7 58.724-83.562 58.667-138.332 155.676-138.332 265.307 0 178.674 145.358 324.036 324.033 324.036 14.828 0 29.36-1.22 43.665-3.166v-179.726z" />
<glyph unicode="&#xe92b;" glyph-name="trash" d="M567.185 886.738c23.146-2.070 44.9-9.134 63.582-23.066 13.816-10.304 23.413-22.918 31.613-36.578 7.598-12.659 15.249-28.442 23.925-46.345l17.482-36.057h176.853c22.622 0 40.96-18.339 40.96-40.96s-18.338-40.96-40.96-40.96c-245.768 0-491.512 0-737.28 0-22.621 0-40.96 18.338-40.96 40.96s18.339 40.96 40.96 40.96h180.624l14.574 31.971c8.461 18.563 15.912 34.912 23.396 48.031 8.074 14.15 17.631 27.245 31.615 37.973 18.912 14.508 41.103 21.863 64.77 24.018 17.818 1.622 35.779 1.399 53.662 1.37 20.922-0.034 39.731 0.066 55.185-1.316zM414.014 744.691h198.735c-9.286 19.144-15.225 31.278-20.607 40.243-7.877 13.121-17.314 18.872-32.256 20.209-10.621 0.95-24.461 0.988-46.473 0.988-22.561 0-36.762-0.039-47.649-1.030-15.323-1.395-24.875-7.366-32.657-21.005-5.099-8.938-10.651-20.902-19.093-39.405zM822.559 298c-3.142-51.327-5.607-92.066-10.719-124.6-5.239-33.37-13.619-61.174-30.401-85.479-15.348-22.233-35.123-40.976-58.040-55.079-25.051-15.417-53.060-22.176-86.36-25.403h-250.879c-33.337 3.232-61.368 9.998-86.44 25.44-22.933 14.131-42.696 32.932-58.040 55.202-16.775 24.347-25.159 52.183-30.36 85.598-5.070 32.584-7.489 73.368-10.56 124.76l-26.68 446.281h675.84l-27.361-446.72zM450.56 305.041c-16.966 0-30.72-13.754-30.72-30.72s13.754-30.72 30.72-30.72h122.88c16.966 0 30.72 13.754 30.72 30.72s-13.754 30.72-30.72 30.72h-122.88zM389.12 465.519c-16.966 0-30.72-13.754-30.72-30.72s13.754-30.72 30.72-30.72h245.76c16.966 0 30.72 13.754 30.72 30.72s-13.754 30.72-30.72 30.72h-245.76z" />
<glyph unicode="&#xe92c;" glyph-name="upload" d="M553.202 345.358c0-22.618-18.342-40.96-40.96-40.96-22.622 0-40.96 18.342-40.96 40.96v266.243l-24.343-0.001c-7.193-0.005-16.028-0.011-23.254 0.893l-0.137 0.017c-5.179 0.646-28.774 3.588-40.012 26.755-11.262 23.217 1.105 43.703 3.78 48.135l0.1 0.165c3.777 6.268 9.272 13.267 13.791 19.024l0.972 1.239c12.068 15.394 27.714 35.227 43.297 51.243 7.774 7.992 16.675 16.234 26.132 22.741 8.405 5.784 22.749 14.109 40.391 14.109s31.986-8.326 40.391-14.109c9.458-6.506 18.358-14.749 26.132-22.741 15.585-16.016 31.228-35.849 43.299-51.243l0.971-1.239c4.518-5.757 10.015-12.757 13.791-19.024l0.098-0.165c2.675-4.432 15.045-24.918 3.781-48.135-11.235-23.167-34.832-26.109-40.010-26.755l-0.139-0.017c-7.225-0.904-16.060-0.898-23.253-0.893l-23.859 0.001v-266.243zM184.32 304.398c22.621 0 40.96-18.338 40.96-40.96 0-24.527 1.334-41.39 3.95-53.297 2.514-11.444 5.623-15.557 7.37-17.302s5.856-4.858 17.3-7.369c11.908-2.617 28.771-3.953 53.3-3.953h409.6c24.531 0 41.394 1.335 53.301 3.953 11.444 2.511 15.553 5.624 17.297 7.369 1.749 1.745 4.858 5.857 7.373 17.302 2.613 11.907 3.949 28.77 3.949 53.297 0 22.622 18.338 40.96 40.96 40.96s40.96-18.338 40.96-40.96c0-26.3-1.319-50.213-5.857-70.877-4.641-21.127-13.189-41.382-29.454-57.647-16.269-16.265-36.524-24.814-57.651-29.458-20.664-4.538-44.577-5.857-70.877-5.857h-409.6c-26.302 0-50.215 1.319-70.878 5.857-21.127 4.645-41.383 13.193-57.649 29.458s-24.814 36.52-29.456 57.647c-4.539 20.664-5.858 44.577-5.858 70.877 0 22.622 18.339 40.96 40.96 40.96z" />
<glyph unicode="&#xe92d;" glyph-name="user" d="M749.826 331.551c4.764-2.839 10.65-6.156 17.314-9.916 29.196-16.474 73.331-41.374 103.567-70.967 18.907-18.51 36.876-42.902 40.141-72.782 3.473-31.781-10.387-61.6-38.203-88.097-47.981-45.715-105.562-82.35-180.040-82.35h-361.196c-74.478 0-132.059 36.635-180.041 82.35-27.812 26.497-41.676 56.316-38.202 88.097 3.266 29.88 21.234 54.272 40.144 72.782 30.235 29.594 74.37 54.493 103.567 70.967 6.662 3.756 12.548 7.078 17.312 9.916 145.574 86.68 330.066 86.68 475.638 0zM296.967 673.040c0 118.764 96.276 215.040 215.041 215.040s215.040-96.276 215.040-215.040c0-118.763-96.276-215.042-215.040-215.042s-215.041 96.279-215.041 215.042z" />
<glyph unicode="&#xe92e;" glyph-name="user-circle" d="M512 906.667c253.316 0 458.667-205.352 458.667-458.667s-205.35-458.667-458.667-458.667c-253.315 0-458.667 205.35-458.667 458.667 0 253.315 205.352 458.667 458.667 458.667zM511.642 693.333c-76.621 0-138.817-62.040-138.817-138.667 0-76.625 62.196-138.667 138.817-138.667 76.625 0 138.82 62.042 138.82 138.667s-62.195 138.667-138.82 138.667zM727.078 256.845c-113.809 122.88-318.557 116.544-429.955 0.196l-8-8c-6.198-6.199-9.583-14.669-9.362-23.433s4.025-17.054 10.527-22.933c58.628-53.013 136.435-85.342 221.717-85.342s163.089 32.329 221.717 85.342c6.502 5.879 10.308 14.17 10.526 22.933 0.222 8.764-3.162 17.233-9.361 23.433l-7.808 7.804z" />
<glyph unicode="&#xe92f;" glyph-name="view" d="M512 765.2c105.288 0 195.539-46.341 265.4-100.88 69.919-54.586 121.606-119.056 150.52-159.599l2.2-3.043c10.371-14.418 22.2-30.892 22.2-53.92s-11.829-39.498-22.2-53.92l-2.2-3.039c-28.914-40.542-80.601-105.013-150.52-159.601-69.861-54.538-160.113-100.88-265.4-100.88s-195.538 46.342-265.4 100.88c-69.921 54.587-121.607 119.058-150.52 159.601l-2.2 3.039c-10.369 14.422-22.2 30.892-22.2 53.92s11.831 39.502 22.2 53.92l2.2 3.043c28.913 40.542 80.6 105.012 150.52 159.599 69.862 54.539 160.113 100.88 265.4 100.88zM512 591.12c-79.176 0-143.36-64.186-143.36-143.362s64.184-143.36 143.36-143.36c79.176 0 143.36 64.184 143.36 143.36s-64.184 143.362-143.36 143.362z" />
<glyph unicode="&#xe930;" glyph-name="view-off" d="M79.684 645.666c18.822 12.548 44.253 7.462 56.801-11.36 1.074-1.534 4.128-5.886 6.394-8.956 4.536-6.145 11.4-15.105 20.431-25.942 18.108-21.729 44.678-50.707 78.39-79.605 68.070-58.343 161.264-113.017 270.303-113.017s202.22 54.673 270.291 113.017c33.71 28.897 60.281 57.876 78.389 79.605 9.032 10.838 15.897 19.798 20.431 25.942 2.265 3.070 5.321 7.423 6.394 8.956 12.55 18.822 37.982 23.908 56.803 11.36s23.908-37.979 11.358-56.801l-0.229-0.328c-1.647-2.353-5.849-8.361-8.413-11.835-5.386-7.295-13.242-17.535-23.409-29.738-20.296-24.351-50.045-56.812-88.011-89.358-75.293-64.532-186.884-132.739-323.604-132.739s-248.326 68.207-323.616 132.739c-37.968 32.547-67.717 65.008-88.010 89.358-10.169 12.203-18.024 22.443-23.409 29.738-2.694 3.65-7.199 10.097-8.645 12.163-12.548 18.822-7.462 44.253 11.36 56.801zM213.283 517.681c15.996-15.995 15.996-41.927 0-57.926l-81.92-81.92c-15.996-15.995-41.93-15.995-57.926 0-15.996 15.999-15.996 41.931 0 57.926l81.92 81.92c15.996 15.999 41.93 15.999 57.926 0zM810.717 517.681c15.995 15.999 41.931 15.999 57.926 0l81.92-81.92c15.995-15.995 15.995-41.927 0-57.926-15.995-15.995-41.931-15.995-57.926 0l-81.92 81.92c-15.995 15.999-15.995 41.931 0 57.926zM410.194 421.442c19.398-11.637 25.686-36.798 14.049-56.197l-61.44-102.4c-11.639-19.395-36.799-25.686-56.197-14.049-19.398 11.641-25.688 36.803-14.049 56.197l61.44 102.4c11.639 19.399 36.799 25.69 56.197 14.049zM613.806 421.442c19.399 11.641 44.556 5.349 56.197-14.049l61.44-102.4c11.637-19.395 5.349-44.556-14.049-56.197-19.399-11.637-44.556-5.345-56.197 14.049l-61.44 102.4c-11.637 19.399-5.349 44.56 14.049 56.197z" />
<glyph unicode="&#xe931;" d="M466.604 956.571h90.459c124.237 0 196.838-18.248 261.288-52.801s115.31-85.026 149.475-149.475c34.553-64.448 52.802-137.050 52.802-261.286v-90.075c0-124.237-18.249-196.838-52.802-261.288-34.556-64.446-85.025-115.31-149.475-149.475-64.45-34.553-137.051-52.802-261.288-52.802h-90.072c-124.238 0-196.84 18.249-261.289 52.802s-115.308 85.029-149.473 149.475c-34.554 64.45-52.801 137.051-52.801 261.288v90.075c0 124.236 18.247 196.838 52.801 261.286s85.026 115.31 149.473 149.475c64.061 34.554 137.050 52.801 260.901 52.801z" />
<glyph unicode="&#xe932;" d="M1020.592 417.785v-14.863c0-124.237-18.245-196.838-52.798-261.288-34.556-64.45-85.029-115.31-149.475-149.475-64.45-34.556-137.051-52.802-261.288-52.802h-90.072c-101.659 0-168.745 12.219-225.082 35.588l-92.877 95.642 871.591 347.198z" />
<glyph unicode="&#xe933;" d="M558.749 960c124.69 0 197.566-18.32 262.25-53 64.677-34.677 115.712-85.326 150.001-150 34.681-64.683 52.999-137.56 52.999-262.251v-90.394c0-124.69-18.319-197.566-52.999-262.25-5.833-10.873-12.098-21.376-18.823-31.462-173.517-111.045-460.186-115.895-643.57-14.537-42.229-20.498-101.714-34.077-149.286-28.822-8.183 0.779-10.134 3.899-4.679 8.967 32.464 32.461 53.587 87.245 34.678 120.393l-2.5 3.997c-144.093 192.9-131.18 548.004 38.75 711.823 3.039 2.93 6.158 5.809 9.321 8.643 57.924 25.522 126.873 38.893 233.072 38.893h90.785zM528.68 556.679c-53.577 0-97.068-43.465-97.072-97.035 0-53.581 43.491-97.072 97.072-97.072 21.548 0 41.388 7.139 57.498 19.035v-0.75c0-8.927 7.76-16.706 17.072-16.717h22.93v187.143h-40.002v-13.356c-16.084 11.758-35.935 18.747-57.498 18.75zM829.18 558.285c-53.968 0-97.858-43.893-97.858-97.858s43.889-97.821 97.858-97.821c53.957 0.007 97.818 43.86 97.821 97.821 0 53.965-43.864 97.854-97.821 97.858zM221.964 611.857v-42.714h138.214l-136.286-168.894c-4.268-6.206-7.357-12.054-7.357-25.249v-10.858h187.893c9.315 0 17.097 7.76 17.108 17.072v22.93h-145.216l128.108 160.713c1.938 2.326 5.442 6.59 7 8.536l0.786 1.178c7.373 10.869 8.927 20.209 8.927 31.466v5.821h-199.178zM660.286 611.857v-233.358c0.007-7.76 6.206-14.358 14.358-14.358h28.357v247.715h-42.715zM528.68 516.714c31.437-0.004 57.062-25.633 57.070-57.070 0-31.448-25.238-57.070-57.070-57.073-31.448 0-57.073 25.626-57.073 57.073 0.007 31.44 25.629 57.070 57.073 57.070zM829.18 517.5c31.828-0.007 57.461-25.633 57.461-57.465-0.004-31.828-25.633-57.457-57.461-57.465-31.835 0-57.461 25.633-57.465 57.465 0 31.835 25.626 57.465 57.465 57.465z" />
<glyph unicode="&#xe934;" d="M256 960h512c141.385 0 256-114.615 256-256v-512c0-141.385-114.615-256-256-256h-512c-141.385 0-256 114.615-256 256v512c0 141.385 114.615 256 256 256z" />
<glyph unicode="&#xe935;" d="M722.652 560.127c15.923 17.371 14.751 44.36-2.621 60.283s-44.36 14.75-60.283-2.621l-204.555-223.15-75.156 75.155c-16.663 16.662-43.678 16.662-60.34 0s-16.663-43.678 0-60.338l106.666-106.67c8.229-8.228 19.462-12.739 31.097-12.483 11.635 0.251 22.661 5.243 30.525 13.824l234.667 255.999z" />
</font>
</defs>
</svg>
